<svg xmlns="http://www.w3.org/2000/svg" viewBox="0 0 512 512" fill="currentColor">
	<path d="M274.09 314.832c0-60.648 49.762-109.996 110.926-109.996 54.422 0 93.918-35.621 93.918-84.703v-16.887c-10.102-5.895-21.809-9.332-34.328-9.332h-8.531c-98.734 0-179.051 80.328-179.051 179.059 0 17.262 6.477 33.004 17.066 45.055zm221.914-197.5v2.797c0 58.977-46.684 101.781-110.996 101.781-51.75 0-93.852 41.687-93.852 92.918v17.246c10.086 5.871 21.766 9.293 34.25 9.293h8.535C432.68 341.367 513 261.039 513 162.309c0-17.23-6.453-32.937-16.996-44.977zM127.93 148.738c-.191.441-.43.859-.703 1.262-14.027 20.98-18.473 46.246-12.184 69.328 6.082 22.371 21.902 40.711 44.539 51.641l16.777 7.156c9.777-6.383 18.098-15.066 23.66-25.922l3.902-7.609c21.426-41.812 24.855-89.195 9.676-133.418-15.812-46.043-49.629-83.082-95.227-104.305-16.28-7.578-34.147-8.523-50.35-4.07l2.852 1.434c57.297 26.664 81.93 88.836 57.059 144.504zM105.555 283.32c9.906 4.617 20.41 6.801 30.77 6.801 6.406 0 12.754-.863 18.871-2.477l-2.668-1.145c-27.52-13.285-46.555-35.484-53.953-62.687-7.52-27.621-2.391-57.707 14.055-82.672 20.484-46.762-.566-98.914-49.184-121.543l-15.598-7.816c-9.926 6.391-18.312 15.223-23.945 26.215l-3.898 7.602C-1.421 87.407-4.85 134.797 10.329 179.024c15.813 46.035 49.637 83.082 95.227 104.297zm57.98 119.36c42.238 42.449 88.453 43.574 130.152 3.156a9.21 9.21 0 0 1 .723-.625l11.598-8.957c-3.219-12.391-10.02-23.66-19.941-32.578l-6.305-5.762c-75.027-69.473-191.441-66.598-259.336 6.223C8.711 375.973 2.02 391.16 1.184 407.34l3.156-2.449c54.457-49.234 111.168-50.172 159.195-2.211zm-12.078 12.047c-41.777-41.715-87.598-40.641-136.168 3.234l-12.082 9.387c3.207 12.32 9.918 23.551 19.711 32.5l6.348 5.793c.063.063.129.113.199.172 35.863 30.785 81.461 46.059 126.762 46.059 48.594 0 96.836-17.582 132.309-52.465 11.816-11.844 18.582-26.996 19.469-43.125l-2.789 2.148c-48.703 46.941-104.715 45.59-153.758-3.703zm0 0"/>
</svg>