<svg xmlns="http://www.w3.org/2000/svg" viewBox="0 0 380 350" fill="currentColor">
	<path d="M344.344 311.934l.113-.047-90.957-92.188c-5.039-1.484-34.508-14.445-35.016-38.805 12.574-14.406 30.859-28.246 57.867-28.52.043-.023.184-.035.254-.035 12.215.332 24.547-3.723 34.355-12.297.688-.602 2.301-2.246 2.301-2.246l67.469-85.031-8.102-8.133-82.543 87.387-9.742-9.77 84.957-84.949-7.141-7.098-85.457 85.469-8.078-8.086 85.465-85.473-7.859-7.844-85.469 85.461-9.578-9.559L335.402 7.41 327.996 0l-81.301 63.336s-2.945 2.484-3.969 3.52c-11.16 11.152-15.953 26.289-14.352 40.863-1.125 18.492-7.105 32.223-14.859 42.66C61.953 2.102 4.797 17.961 4.797 17.961L.27 22.555 165.156 187.84 36.543 316.477l.012.02c-.094.094-.211.129-.32.246-7.609 7.617-7.582 19.945.012 27.551s19.965 7.605 27.547.023c.121-.117.156-.246.227-.312l.023.02L192.66 215.449l20.715 20.734 103.313 103.359h.113c0 .117.105.223.211.27 7.594 7.648 20.063 7.648 27.645 0 7.699-7.582 7.699-20.008 0-27.645-.094-.117-.199-.164-.312-.234zm0 0"/>
</svg>