<svg xmlns="http://www.w3.org/2000/svg" fill="currentColor" viewBox="0 57.54 500 384.91">
	<path d="M392.875 57.543c-36.922 0-71.426 11.105-99.773 32.109-25.105 18.598-43.711 44.316-51.051 70.555-8.398 30.031-1.574 57.164 18.215 75.07-6.809 11.961-13.141 24.305-18.156 36.277-4.605-11.453-10.738-21.715-17.672-30.855 9.832-15.625 11.195-34.711 3.469-54.27-7.273-18.418-22.004-35.398-41.48-47.82-21.012-13.398-45.746-20.477-71.535-20.477-33.094 0-67.043 11.934-98.176 34.52L0 164.773l19.926 5.414c32.871 8.934 59.105 34.273 82.25 56.633 23.633 22.828 45.953 44.391 71.809 44.395 12.738 0 24.898-5.086 37.07-15.48 11.684 16.469 19.992 36.656 19.992 61.211v125.512h19.766l.02-127.867c0-15.773 9.25-39.023 25.734-68.074 12.242 6.609 23.684 9.836 34.824 9.836 36.328 0 59.953-34.762 84.969-71.562 22.324-32.848 47.629-70.082 85.277-89.363L500 86.023l-18.836-8.418c-29.801-13.312-59.504-20.062-88.289-20.062zM173.996 251.449c-17.879-.004-36.512-18.004-58.086-38.848-20.422-19.727-43.078-41.613-71.457-54.488 23.07-13.426 46.691-20.215 70.438-20.215 47.66 0 83.684 28.066 94.633 55.793 2.836 7.18 5.766 19.066.977 30.965-17.73-18-37.246-30.301-49.391-37.957l-8.672-5.629-11.453 16.109c2.496 1.777 5.781 3.848 9.586 6.242 12.508 7.887 31.492 19.855 47.883 37.082-8.539 7.352-16.566 10.945-24.457 10.945zm206.012-77.773c-22.941 33.758-42.754 62.91-68.617 62.91-7.586 0-15.711-2.332-24.703-7.082l2.688-4.297c19.586-30.965 39.473-56.031 39.672-56.281l-15.469-12.309c-1.695 2.129-22.559 28.508-42.883 61.18-11.957-12.879-15.484-31.254-9.609-52.266 6.18-22.094 22.137-43.961 43.781-59.996 17.379-12.875 46.754-28.227 88.008-28.227 20.219 0 41.043 3.734 62.125 11.125-32.332 22.48-54.812 55.551-74.992 85.242zm0 0"/>
</svg>